<?xml version="1.0" encoding="UTF-8"?><!DOCTYPE svg PUBLIC "-//W3C//DTD SVG 1.1//EN" "http://www.w3.org/Graphics/SVG/1.1/DTD/svg11.dtd"><svg xmlns="http://www.w3.org/2000/svg"><defs><style>.cls-1{fill-rule:evenodd}</style></defs><symbol id="arrow_big" viewBox="0 0 28.9 14"><path d="M21.3 0L20 1.5 24.9 6H0v2h24.9L20 12.5l1.3 1.5 7.6-7z"/></symbol><symbol id="arrow_small" viewBox="0 0 16.9 14"><path d="M9.3 0L8 1.5 12.9 6H0v2h12.9L8 12.5 9.3 14l7.6-7z"/></symbol><symbol id="checkbox" viewBox="0 0 78.369 78.369"><path d="M78.049 19.015L29.458 67.606a1.094 1.094 0 0 1-1.548 0L.32 40.015a1.094 1.094 0 0 1 0-1.547l6.704-6.704a1.095 1.095 0 0 1 1.548 0l20.113 20.112 41.113-41.113a1.095 1.095 0 0 1 1.548 0l6.703 6.704a1.094 1.094 0 0 1 0 1.548z"/></symbol><symbol id="dove" viewBox="0 0 281.8 293.3"><path d="M214.2 105.6c-26.9 5.3-39 31.9-56.8 31.9-17.4-.4-77.6-13.7-124.9-84 0 0-13.6 113.2 53 144.4 0 0-31.4 29.3-85.5 21.7 0 0 9.8 56.2 29.1 73.7 0 0 31.4-34.9 55.2-36.5 23.5-1.1 83.2 6.8 103.7-34.6 20.1-41.4 11.3-85.5 62.8-94.6.1.1-9.7-27.3-36.6-22zm15.5-38.7s-11.3-23.2-38.6-17.1c0 0 15.1 28.5 38.6 17.1zm51.1-23.6S252 58.1 263.4 82.1c0 0 23.4-11.4 17.4-38.8zm-16.7-31.1s-24.6 20.9-8.3 41.4c0 0 20.4-16 8.3-41.4zm-27.6 132.2c-1.1 8.7-.8 16 .4 27 .3 2.9 2.8 5.1 5.7 4.9h.8c3-.3 5.2-3 4.9-6.1-1.1-12.5-1.1-19.4.8-31.2-4.5 1.3-8.7 3.1-12.6 5.4zm-41.2-64.6s20.8 24.7 41.2 8c0 0-15.9-20.2-41.2-8zm-86.7-42.6c-.4 25.5-6.8 51.3-11 65.7 26.1 17.5 47.7 21.7 56.4 22.8 3.4-47.4-45.4-88.5-45.4-88.5zm129.8 6.1c-3 3.8-5.7 7.2-7.2 9.1 3 4.9 13.6 25.4 12.5 48.6 3.9 2.6 7.4 5.8 10.2 9.5 5.7-33.4-13.2-63.8-14-65-.2-.8-.7-1.7-1.5-2.2zM228.6 0s-22.7 20.1-2.7 44.1c0-.4 23.9-18.6 2.7-44.1z"/></symbol><symbol id="help_1_ico" viewBox="0 0 22.8 30.6"><path d="M19.1 14.6c-.3 0-.6-.3-.6-.6V4.2c0-.8-.7-1.5-1.5-1.5s-1.5.7-1.5 1.5v9.7c0 .3-.3.6-.6.6s-.6-.3-.6-.6V1.5c0-.8-.7-1.5-1.5-1.5s-1.5.7-1.5 1.5v12.4c0 .3-.3.6-.6.6s-.7-.2-.7-.6V3.7c0-.8-.7-1.5-1.5-1.5S7 2.9 7 3.7v16.5c0 .3-.2.5-.5.6-.3.1-.6 0-.7-.3l-2.9-5.1c-.2-.4-.6-.7-1-.8-.1 0-.3-.1-.4-.1-.2 0-.5.1-.7.2-.3.2-.6.5-.7.9-.1.4 0 .8.2 1.2L7 28.5c.7 1.2 2.2 2 2.7 2h9.8c2.3 0 3.1-3.5 3.2-5.6.2-4.4 0-4.8 0-7.6V8.9c0-.8-.7-1.5-1.5-1.5s-1.5.7-1.5 1.5v4.9c0 .5-.2.8-.6.8z"/></symbol><symbol id="help_2_ico" viewBox="0 0 20.5 24.6"><path d="M16.8 8.6c-.3 0-.6-.3-.6-.6V3.2c0-.8-.7-1.5-1.5-1.5s-1.5.7-1.5 1.5v4.7c0 .3-.3.6-.6.6s-.6-.3-.6-.6V1.5c0-.8-.7-1.5-1.5-1.5S8.9.7 8.9 1.5v6.4c0 .3-.3.6-.6.6s-.7-.2-.7-.6V3.7c0-.8-.7-1.5-1.5-1.5s-1.5.7-1.5 1.5v10.5c0 .3-.2.5-.5.6-.3.1-.6 0-.7-.3l-.6-1.1c-.2-.4-.6-.7-1-.8-.1 0-.3-.1-.4-.1-.2 0-.5.1-.7.2-.3.3-.6.6-.7 1-.1.4 0 .8.2 1.2l4.4 7.6c.7 1.2 2.2 2 2.7 2h9.8c2.3 0 3.1-3.5 3.2-5.6.2-4.4 0-4.8 0-7.6V5.9c0-.8-.7-1.5-1.5-1.5s-1.5.7-1.5 1.5v1.9c.1.5-.2.8-.5.8z"/></symbol><symbol id="ico_close_d" viewBox="0 0 14 14"><path d="M11.917 14L0 2.082 2.082 0 14 11.918 11.917 14zm-9.835 0L0 11.918 11.917 0 14 2.082 2.082 14z"/></symbol><symbol id="ico_fb" viewBox="0 0 9 16"><path d="M5.84 16V8.702h2.657l.396-2.843H5.84V4.042c0-.824.249-1.385 1.528-1.385L9 2.654V.111A23.897 23.897 0 0 0 6.622 0C4.27 0 2.663 1.326 2.663 3.76v2.099H0v2.843h2.663V16H5.84z"/></symbol><symbol id="ico_inst" viewBox="0 0 13 13"><circle cx="9.958" cy="3.042" r=".778"/><path d="M12.94 3.829c-.032-.69-.141-1.16-.303-1.572a3.129 3.129 0 0 0-.746-1.148 3.197 3.197 0 0 0-1.148-.747c-.412-.16-.881-.271-1.571-.301a57.725 57.725 0 0 0-5.344.001c-.688.029-1.159.141-1.571.3a3.157 3.157 0 0 0-1.148.747c-.359.36-.583.722-.746 1.148-.162.412-.271.881-.303 1.572-.08 1.772-.08 3.57 0 5.342.032.69.141 1.162.303 1.574.164.426.387.785.746 1.146.36.362.722.583 1.148.749.412.16.883.269 1.571.301 1.771.08 3.572.08 5.344 0 .69-.032 1.159-.141 1.571-.301a3.176 3.176 0 0 0 1.148-.749c.362-.36.583-.72.746-1.146.162-.412.271-.884.303-1.574.08-1.772.08-3.57 0-5.342zm-1.168 5.29c-.027.631-.132.975-.221 1.203-.118.303-.26.519-.485.744a2 2 0 0 1-.744.485c-.23.089-.572.194-1.205.223-1.735.078-3.5.078-5.235 0-.633-.029-.975-.134-1.205-.223a2.016 2.016 0 0 1-.744-.485 2.013 2.013 0 0 1-.485-.744c-.089-.229-.193-.572-.22-1.203-.08-1.738-.08-3.5 0-5.236.027-.633.131-.975.221-1.205.118-.3.26-.517.485-.744a2.02 2.02 0 0 1 .744-.483c.23-.089.572-.196 1.205-.223 1.735-.08 3.5-.08 5.235 0 .632.027.975.134 1.205.223.303.116.517.257.744.483.225.227.367.444.485.744.089.23.194.572.221 1.205.079 1.736.079 3.5-.001 5.236z"/><path d="M6.499 3.172a3.328 3.328 0 1 0 .003 6.657 3.328 3.328 0 0 0-.003-6.657zm0 5.489a2.161 2.161 0 0 1 0-4.32 2.16 2.16 0 1 1 0 4.32z"/></symbol><symbol id="ico_menu" viewBox="0 0 12 9.1"><path d="M0 0h9v1.1H0V0zm0 4h12v1.1H0V4zm0 4h7v1.1H0V8z"/></symbol><symbol id="ico_ok" viewBox="0 0 13.8 10.8"><path d="M5.9 10.8L0 4.4l2.2-2 3.7 4L11.6 0l2.2 2z"/></symbol><symbol id="ico_play" viewBox="0 0 8 11"><path d="M0 0v11l8-5.5L0 0z"/></symbol><symbol id="ico_recipy" viewBox="0 0 15 13"><path class="cls-1" d="M11.847 1.644a2.954 2.954 0 0 0-1.107.215A3.839 3.839 0 0 0 7.492 0a3.829 3.829 0 0 0-3.233 1.857 2.942 2.942 0 0 0-1.108-.217h-.02A3.2 3.2 0 0 0 .063 4.912 3.261 3.261 0 0 0 2.106 8v5h10.788V8a3.251 3.251 0 0 0 2.048-3.067 3.208 3.208 0 0 0-3.095-3.289zM3.042 12.071V9.355h8.917v2.717H3.042zm9.366-4.878a.656.656 0 0 0-.45.629v.6H3.042v-.59a.661.661 0 0 0-.45-.639A2.349 2.349 0 0 1 1 4.9a2.269 2.269 0 0 1 2.161-2.331 2 2 0 0 1 .926.234.647.647 0 0 0 .874-.286A2.889 2.889 0 0 1 7.492.929a2.891 2.891 0 0 1 2.54 1.578.635.635 0 0 0 .365.331.665.665 0 0 0 .521-.038 1.982 1.982 0 0 1 .91-.23 2.276 2.276 0 0 1 2.179 2.36 2.336 2.336 0 0 1-1.599 2.264z"/></symbol><symbol id="ico_vk" viewBox="0 0 14 8"><path fill-rule="evenodd" clip-rule="evenodd" d="M6.85 7.989h.836s.252-.027.382-.166c.12-.129.116-.371.116-.371s-.016-1.138.504-1.303c.514-.163 1.173 1.088 1.873 1.571.529.364.929.269.929.269l1.871.002s.977-.073.514-.846c-.037-.062-.268-.571-1.389-1.612-1.173-1.092-1.016-.916.396-2.804C13.743 1.58 14.087.878 13.98.576c-.102-.285-.732-.236-.732-.236h-2.109s-.157-.017-.271.053-.187.246-.187.246-.334.906-.777 1.663c-.938 1.597-1.313 1.682-1.466 1.58-.356-.23-.268-.927-.268-1.424 0-1.546.234-2.192-.455-2.357-.229-.059-.397-.092-.983-.1-.75-.007-1.386.002-1.746.18-.24.117-.424.38-.311.393.139.021.453.087.621.315.216.294.209.955.209.955s.123 1.821-.291 2.047c-.284.156-.673-.162-1.509-1.61-.427-.741-.75-1.578-.75-1.578S2.891.551 2.779.468C2.646.369 2.457.337 2.457.337l-2 .002s-.3.007-.412.138C-.053.595.038.836.038.836S1.604 4.539 3.377 6.39C5.004 8.088 6.85 7.989 6.85 7.989z"/></symbol><symbol id="ico___page" viewBox="0 0 10 16"><path d="M2.066 16L0 13.914l7.934-8.011L10 7.989 2.066 16zm5.868-5.903L0 2.086 2.066 0 10 8.011l-2.066 2.086z"/></symbol><symbol id="load" viewBox="0 0 92 81.1"><path d="M90.8 34.4l-4.7 5.2c-.1-2.4-.3-4.9-.8-7.2-.5-2.6-1.3-5.2-2.4-7.6-1-2.4-2.3-4.7-3.7-6.9-1.4-2.1-3.1-4.2-4.9-6s-3.8-3.5-6-4.9c-2.2-1.5-4.5-2.7-6.9-3.7-2.4-1-5-1.8-7.6-2.4-5.3-1.1-11-1.1-16.3 0-2.6.5-5.2 1.3-7.6 2.4-2.4 1-4.7 2.3-6.9 3.7-2.1 1.5-4.2 3.1-6 4.9s-3.5 3.9-4.9 6c-1.5 2.2-2.7 4.5-3.7 6.9-1 2.4-1.8 5-2.4 7.6l1.5.3c.5-2.5 1.3-5 2.3-7.3 1-2.3 2.2-4.5 3.6-6.6 1.4-2.1 3-4 4.8-5.8 1.8-1.8 3.7-3.4 5.8-4.8 2.1-1.4 4.3-2.6 6.6-3.6s4.8-1.8 7.3-2.3c5.1-1.1 10.6-1.1 15.7 0 2.5.5 5 1.3 7.3 2.3 2.3 1 4.5 2.2 6.6 3.6 2.1 1.4 4 3 5.8 4.8 1.8 1.8 3.4 3.7 4.8 5.8 1.4 2.1 2.6 4.3 3.6 6.6 1 2.4 1.8 4.8 2.3 7.3.5 2.3.7 4.6.8 7l-5.2-4.8-1.1 1.2 7.2 6.6 6.5-7.2-1.4-1.1zM84.5 48.4c-.5 2.5-1.3 5-2.3 7.3-1 2.3-2.2 4.5-3.6 6.6-1.4 2.1-3 4-4.8 5.8s-3.7 3.4-5.8 4.8c-2.1 1.4-4.3 2.6-6.6 3.6s-4.8 1.8-7.3 2.3c-5.1 1.1-10.6 1.1-15.7 0-2.5-.5-5-1.3-7.3-2.3-2.3-1-4.5-2.2-6.6-3.6-2.1-1.4-4-3-5.8-4.8-1.8-1.8-3.4-3.7-4.8-5.8-1.4-2.1-2.6-4.3-3.6-6.6-1-2.4-1.8-4.8-2.3-7.3-.5-2.2-.7-4.6-.7-6.9l5.2 4.7 1.1-1.2-7.2-6.6L0 45.8l1.2 1.1 4.7-5.2c.1 2.3.3 4.7.8 7 .5 2.6 1.3 5.2 2.3 7.6 1 2.4 2.3 4.7 3.7 6.9 1.4 2.1 3.1 4.2 4.9 6 1.8 1.8 3.8 3.5 6 4.9 2.2 1.5 4.5 2.7 6.9 3.7 2.4 1 5 1.8 7.6 2.4 2.7.5 5.4.8 8.2.8s5.5-.3 8.2-.8c2.6-.5 5.2-1.3 7.6-2.4 2.4-1 4.7-2.3 6.9-3.7 2.1-1.5 4.2-3.1 6-4.9 1.8-1.8 3.5-3.9 4.9-6 1.5-2.2 2.7-4.5 3.7-6.9 1-2.4 1.8-5 2.4-7.6l-1.5-.3z"/></symbol><symbol id="pin" viewBox="0 0 34.7 47.2"><path d="M17.4 0C7.8 0 0 7.8 0 17.4 0 27 17.4 47.2 17.4 47.2S34.7 27 34.7 17.4C34.7 7.8 27 0 17.4 0zm0 24.3c-4.3 0-7.8-3.5-7.8-7.8s3.5-7.8 7.8-7.8 7.8 3.5 7.8 7.8c-.1 4.3-3.5 7.7-7.8 7.8z"/></symbol><symbol id="up-arrow" viewBox="0 0 284.929 284.929"><path d="M282.082 195.285L149.028 62.24c-1.901-1.903-4.088-2.856-6.562-2.856s-4.665.953-6.567 2.856L2.856 195.285C.95 197.191 0 199.378 0 201.853c0 2.474.953 4.664 2.856 6.566l14.272 14.271c1.903 1.903 4.093 2.854 6.567 2.854s4.664-.951 6.567-2.854l112.204-112.202 112.208 112.209c1.902 1.903 4.093 2.848 6.563 2.848 2.478 0 4.668-.951 6.57-2.848l14.274-14.277c1.902-1.902 2.847-4.093 2.847-6.566.001-2.476-.944-4.666-2.846-6.569z"/></symbol><symbol xmlns="http://www.w3.org/2000/svg" id="wengrow" viewBox="0 0 251 281"><style>.st0{fill:#131820}</style><path class="st0" d="M222 251h1v3h-1zM243 157h1v5h-1zM41.3 135c-1.9.3-3.3 1.8-4.3 4.3l.9.3c.8-2.2 2-3.4 3.5-3.6l-.1-1zM123.2 58.8l-1.4 1.4c-1 1-1 2.6 0 3.5l.7-.7c-.6-.6-.6-1.5 0-2.1l1.4-1.4c.6-.6 1.5-.6 2.1 0l.7-.7c-1-1-2.5-1-3.5 0zM127.4 60.9c.6.6.6 1.5 0 2.1l.7.7c1-1 1-2.6 0-3.5l-.7.7zM182 164h1v46h-1zM222 212h1v35h-1zM222 193h1v15h-1zM210.6 136l-.2-1c-1.7.3-2.8 1.3-3.5 3.1l.9.3c.6-1.4 1.5-2.2 2.8-2.4zM87.3 45.5v-1h-1.6L83.9 41l-.9.5 2.1 4zM176.7 44.9v-1h-1.4l-1.4-2.9-.9.4 1.7 3.5zM168.028 45.55l1.638-3.54.908.42-1.638 3.54zM7 200h1v6H7zM7 160h1v35H7zM43.5 166.2h1v-5.7h1.1v-1h-2.1zM198 160.5h8.6v6.7h1v-7.7H198z"/><path class="st0" d="M184.2 80.5l2.2-2.6-60.9-35.8-.3-.1L65 77.9l1.2 2.6h118zm-59-37.3l59.6 35-1.1 1.3H66.8l-.6-1.2 59-35.1z"/><path class="st0" d="M84.9 75H169l-.2-.1-1.4-.9L126 49 84.1 74.3l-.9.6-.2.1H84.9zM126 50.2L165.4 74H86.6L126 50.2zM136.2 215.6l-10.7-5.6-11.5 6h22.9l-.2-.1-.5-.3zm-18.1-.6l7.4-3.9 7.4 3.9h-14.8z"/><path class="st0" d="M131.8 60.4l-4.2-4.2c-1.2-1.2-3.1-1.2-4.2 0l-4.2 4.2c-1.2 1.2-1.2 3.1 0 4.2l4.2 4.2c1.2 1.2 3.1 1.2 4.2 0l4.2-4.2c1.2-1.2 1.2-3.1 0-4.2zm-.7 3.5l-4.2 4.2c-.8.8-2 .8-2.8 0l-4.2-4.2c-.8-.8-.8-2 0-2.8l4.2-4.2c.8-.8 2-.8 2.8 0l4.2 4.2c.8.8.8 2 0 2.8z"/><path class="st0" d="M249 151h2l-2-6h-.2l-12.2-49H235v-9h2v-8h-2v-2c0-1.1-.9-2-2-2s-2 .9-2 2v2h-2v8h2v9h-1.5l-12.2 49H213.6c2-1.2 3.4-3.5 3.4-6 0-3.9-3.1-7-7-7-3.4 0-6.3 2.5-6.9 5.7-.7.2-1.4.3-2.1.3-4.4 0-8-3.6-8-8v-.6h-.2l-2.5-29.3h.6v-3h1v-3h-1v-6h1v-3h1l3-6-19-11.4V49.4l3-1.6-2-9.4-3-2.1v-2.9c0-1.4-1.1-2.5-2.5-2.5s-2.5 1.1-2.5 2.5V36l-2.4 1.9-3.6 8.6 3.2 2.1-.1 13-27-16.2V44l-8-5.1V35l-3.4-6h.4v-4h-1V11h6V7h-6V0h-4v4h1V1h2v7h6v2h-6v15h-2V10h-6V8h5.9l.1-1h-7v4h6v14h-1v4h.4l-3.4 6v3.9l-8 5.1v1.4l-20.1 12-.1-8.8 2.2-2.1V38l-2.1-.9-.8 1 .1.1H91l-.6.8-.6-.6h-.2l.1-.1-1.5-1.6L87 36v-2.5c0-1.4-1.1-2.5-2.5-2.5S82 32.1 82 33.5v2.9l-3 2.1v9.4l1 1.6v15.2L56 79l3 6v3h1v6h-1v3h1v3h.7L58 130.2c0 4.3-3.6 7.9-8 7.9-.7 0-1.4-.1-2.1-.3-.6-3.2-3.5-5.7-6.9-5.7-3.9 0-7 3.1-7 6.9 0 2.5 1.4 4.7 3.4 5.9h-3.6L21.5 96H20v-9h2v-8h-2v-2c0-1.1-.9-2-2-2s-2 .9-2 2v2h-2v8h2v9h-1.5L2.2 145H2l-2 6h2v116H1v14h249v-14h-1V151zm-14-71h1v6h-1v-6zM20 80h1v6h-1v-6zm229.6 70H244l-1.2-4h5.4l1.4 4zm-6.6 0h-10v-4h8.8l1.2 4zm-8.3-53h1l12 48H233V97h.7l6.9 42.2 1-.2-6.9-42zM232 77c0-.6.4-1 1-1s1 .4 1 1v2h-2v-2zm0 10v-7h2v16h-2v-9zm-2-1v-6h1v6h-1zm.3 11h1.7v48h-8.7l5.3-28.9-1-.2-5.3 29.1h-4l12-48zm1.7 49v4h-10.3l1.3-4h9zm-14.3 0h4.2l-1.3 4h-4.3l1.4-4zM192 130.2c.1 4.9 4.1 8.8 9 8.8.8 0 1.6-.1 2.4-.3l.6-.2.1-.6c.5-2.8 3-4.9 5.9-4.9 3.3 0 6 2.7 6 6 0 3-2.2 5.5-5.2 5.9l-.4.1H203c-10.7.1-16-5.2-16-16v-29h2.4l2.6 30.2zM177 195v-5h1v-4h2v-5l-10-5.4V100h12v58h1v-58h3v118.1c-3.4-2.6-6.4-6.8-9-12.8V198h1v-3h-1zm-32-6v-3h2v-1h-4v-3h36v3h-29v1h27v3h-32zm31 1v5h-30v-5h30zm-43.9-21.8l1.9-5.2c-3.5-1.3-6.4-2-8.5-2s-5 .7-8.5 2l1.9 5.2L105 175v3.8l-9-4.8v-4h-4v-2l2-4v-3l-2-.7V159c0-1.1-.9-2-2-2s-2 .9-2 2v1.3l-2 .7v3l2 4v2h-4v4l-2 1.1V151h87v24.1l-2-1.1v-4h-3v-2l2-4v-3l-2-.7V159c0-1.1-.9-2-2-2s-2 .9-2 2v1.3l-2 .7v3l2 4v2h-5v4l-9 4.8V175l-13.9-6.8zm-.7.8l12.3 6h-36.4l12.3-6h11.8zm-13.1-5.4c3-1.1 5.4-1.6 7.2-1.6 1.8 0 4.2.5 7.2 1.6l-1.6 4.4h-11.3l-1.5-4.4zM145 176v2h-39v-2h39zm-37 6v3H72v-3h7v-1h-5.9l11.1-6h11.5l11.1 6H84v1h24zm-34 7v-3h32v3H74zm31 1v5H75v-5h30zM68 96v-1h14v.7l-1 .3v3H69v-3h-1zm-5 0v-1h4v2h1v2h-4v-3h-1zm103-8v3h3v3H88.2L83 95.4V94h-1v-3h3v-3h3v-3h75v3h3zm18 2v-2h6v2h-6zm6 1v3h-2v-3h2zm-21 5v-1h14v1h-1v3h-12v-3h-1zm1-2v-3h12v3h-12zm-3-4v-2h16v2h-16zm16 1h4v3h-4v-3zm3-4h-22v-2h22v2zm-61 20c-21 0-38 17-38 38h-2c0-22.1 17.9-40 40-40s40 17.9 40 40h-2c0-21-17-38-38-38zm37 38h-18.2v-31.9c10.9 6.5 18.2 18.3 18.2 31.9zm-36.7-33c-4.9 0-10 1-15.3 3v30h-4v-31.8c5.6-3.3 12.1-5.2 19-5.2 6.5 0 12.5 1.7 17.8 4.6V145H140v-30c-4.9-2-9.8-3-14.7-3zm5.7 23v-12h8v12h-8zm8 1v9h-8v-9h8zm-8-14v-8.5c2.7.4 5.3 1.2 8 2.2v6.3h-8zm-1 1v12h-8v1h8v9h-10v-31.6c1.8-.3 3.6-.4 5.3-.4 1.6 0 3.1.1 4.7.3v8.7h-8v1h8zm-19 12v-12h8v12h-8zm8 1v9h-8v-9h8zm-8-14v-6.3c2.7-1 5.4-1.7 8-2.1v8.4h-8zm-6-8.1V145H88c0-13.1 6.8-24.5 17-31.1zM88 146h17v.1h38.8v-.1H169v4H82v-4h6zm78-1c0-22.6-18.4-41-41-41s-41 18.4-41 41h-2v-45h87v45h-3zM82 99v-2h1v-.5l5.3-1.5H168v2h1v2H82zm-14-9v-2h16v2H68zm13 1v3H69v-3h12zm6-4H65v-2h22v2zm-20 1v2h-6v-2h6zm-3-1h-4v-2h4v2zm-3 4h2v3h-2v-3zm6 3h-3v-3h4v3h-1zm20 69.8v-2l2-.7V159c0-.6.4-1 1-1s1 .4 1 1v2.1l2 .7v2l-2 4v2.2h-2v-2.2l-2-4zm5 7.2h3v3H85v-3h7zm67-7.2v-2l2-.7V159c0-.6.4-1 1-1s1 .4 1 1v2.1l2 .7v2l-2 4v2.2h-2v-2.2l-2-4zm5 7.2h2v3h-10v-3h8zm-8.7 4h11.5l11.1 6h-33.8l11.2-6zm29.8-76H183v-2h1v-2h4v1h-1v3h-1.9zm1.9 37.2c1.4 4.4 4.3 7.4 8.7 8.8H187v-8.8zm4-40.2h-1v3h-2v-2h1v-2h2v1zm0-9h-4v-2h4v2zm-25.8-40.8l3.1-7.6 2.6-2v-3c0-.8.7-1.5 1.5-1.5s1.5.7 1.5 1.5V37l3.1 2.1 1.8 8.2-2.9 1.5V67l-8-4.8.1-14.1-2.8-1.9zM124 26h4v2h-4v-2zm-3 9.3l3.6-6.3h2.8l3.6 6.3V35l.1.5-.1-.2v2.9l-5-3.2-5 3.2v-2.9zM80 39l3-2.1v-3.4c0-.8.7-1.5 1.5-1.5s1.5.7 1.5 1.5v3.2l1.7.7 2.7 3.1 1.7-2.1.8.3v7.4l-2.2 2.1.1 9.8-9.8 6V49.1l-1-1.6V39zM59.6 84l-2.3-4.6L113 46v-1.4l13-8.4 13 8.4V46l55.7 33.4-2.3 4.6H59.6zm.4 12v-1h2v2h1v2h-2v-3h-1zm-25 43.1c0-3.3 2.7-5.9 6-5.9 2.9 0 5.4 2.1 5.9 4.9l.1.6.6.2c.8.2 1.6.3 2.4.3 4.7 0 8.5-3.5 9-8l2.6-31H64v28.9c0 10.8-5.3 16.1-16 16h-7.9c-2.9-.6-5.1-3.1-5.1-6zm29-3v8.9h-8.7c4.4-1.4 7.3-4.4 8.7-8.9zM40 146h24v4H35.7l-1.3-4H40zm-5.4 4h-5.2l-1.3-4h5.1l1.4 4zm-6.2 0H19v-4h8.1l1.3 4zM20 97h.7l12 48H28l-2-11-1 .2 1.9 10.8H19V97h1zm-3-20c0-.6.4-1 1-1s1 .4 1 1v2h-2v-2zm0 10v-7h2v16h-2v-9zm-2-1v-6h1v6h-1zm1.8 11H18v48H7.7l.1-.2 9-47.8zm1.2 49v4H6l1.3-4H18zm-2.7-49h.5l-9 47.5-.2.5H3.3l12-48zM1.4 150l1.3-4h3.6L5 150H1.4zM34 280H2v-12h5v-1H3V151h30v116H12v1h22v12zm21 0H41v-12h14v12zm0-33v20H43v-38h12v18zm19 20v13H56v-33c0-5 4-9 9-9s9 4 9 9v20zm0-24.3c-1.6-3.3-5-5.7-9-5.7s-7.4 2.3-9 5.7V229c8-.5 13.9-3.9 18-10.1v23.8zm0-25.7c-3.9 6.8-9.8 10.5-18 11H41v-6h17.1c6.3-.6 11.6-5.4 15.9-14.2v9.2zm-28-8.2v-2l2-.7V204c0-.6.4-1 1-1s1 .4 1 1v2.1l2 .7v2l-2 4v2.2h-2v-2.2l-2-4zm5 4.2l2-4v-3l-2-.7V204c0-1.1-.9-2-2-2s-2 .9-2 2v1.3l-2 .7v3l2 4v2l-4 3-2 .7V157h16v61.7l-2-.7-4-3v-2zm-7.5 5.9l3.9-2.9h3.3l3.9 2.9 2.5.8v1.3H41v-1.3l2.5-.8zM74 200v5.4c-2.6 5.9-5.6 10.2-9 12.8V155h-1v63.8c-1.9 1.2-3.9 1.9-6 2.2v-65H40v73h2v38h-2v13h-5v-13h-1V151h31v-22.1V100h3v114h1V100h12v75.6L71 181v5h2v4h1v5h-1v3h1v2zm31 80H75v-12h30v12zm-17-77v1h-1v2h-6v-2h-1v-1h8zm-7-1v-2h6v2h-6zm7 0v-2h4v2h-1v3h1v62h-4v-62h1v-3h-1zm12 1v1h-1v2h-6v-2h-1v-1h8zm-7-1v-2h6v2h-6zm6 5v60h-6v-60h6zm-12 0v60h-6v-60h6zm-7-5h-1v3h1v62h-5v-67h5v2zm25 48v17h-5v-62h1v-3h-1v-2h5v50zm0-53v2H75v-2h-1v-1h32v1h-1zm1 52.9v-6c1-.1 2-.2 3-.4v6.2c-1 .1-2 .2-3 .2zm3 .7V267h-3v-16.1c1 0 2-.1 3-.3zm16 29.4h-19v-12h19v12zm13-31.1v-6.5c1 .3 2 .6 3 .8v6.3l-3-.6zm3 1.6V267h-3v-17.1c1 .3 2 .5 3 .6zm-3-9.1V222h-25v19.4l-3 .9V219h31v23.2c-1-.2-2-.5-3-.8zm-12 2.1v-8.1c3.2 3 7 5.2 11 6.7v6.6c-4-1.2-7.7-2.9-11-5.2zm11 6.2V267h-11v-22.3c3.4 2.2 7.1 3.9 11 5zM126 234v-1.5c0-1.4 1.1-2.5 2.5-2.5s2.5 1.1 2.5 2.5h1c0-1.9-1.6-3.5-3.5-3.5-1 0-1.9.4-2.5 1.1V223h11v18c-4-1.5-7.8-3.8-11-7zm-16 15.5v-6.3c1-.2 2-.5 3-.8v6.5l-3 .6zm3 .4V267h-3v-16.5c1-.1 2-.3 3-.6zm-3-31.9h-1.4l-.3-.6 17.2-9.3 17.2 9.3-.3.6H110zm15 49h-11v-17.3c3.9-1 7.6-2.7 11-5V267zm0-26v2.5c-3.3 2.3-7 4.1-11 5.2v-6.6c4-1.5 7.8-3.7 11-6.7v5.6zm0-10.9c-.6-.6-1.5-1.1-2.5-1.1-1.9 0-3.5 1.6-3.5 3.5h1c0-1.4 1.1-2.5 2.5-2.5s2.5 1.1 2.5 2.5v1.5c-3.2 3.2-7 5.5-11 7v-18h11v7.1zm20 49.9h-19v-12h19v12zm0-13h-3v-16.4l3 .3V267zm0-17.1c-1-.1-2-.1-3-.3v-6.2c1 .2 2 .3 3 .4v6.1zm0-7c-1-.1-2-.2-3-.5V219h1l1-2-18.5-10-18.5 10 1 2h1v23.4c-1 .2-2 .3-3 .5V200h39v42.9zm0-43.9h-39v-1h1v-3h-1v-5h1v-4h2v-5l-3.7-2h40.4l-3.7 2v5h2v4h1v5h-1v3h1v1zm31 81h-30v-12h30v12zm-17-77v1h-1v2h-6v-2h-1v-1h8zm-7-1v-2h6v2h-6zm7 0v-2h4v2h-1v3h1v62h-4v-62h1v-3h-1zm12 1v1h-1v2h-6v-2h-1v-1h8zm-7-1v-2h6v2h-6zm6 5v60h-6v-60h6zm-12 0v60h-6v-60h6zm-7-5h-1v3h1v62h-5v-67h5v2zm25 1v64h-5v-62h1v-3h-1v-2h5v3zm0-6v2h-30v-2h-1v-1h32v1h-1zm19 70v13h-18v-33c0-5 4-9 9-9s9 4 9 9v20zm0-24.3c-1.6-3.3-5-5.7-9-5.7s-7.4 2.3-9 5.7v-23.8c4.1 6.2 10 9.6 18 10.1v13.7zm0-14.7c-8.2-.6-14.2-4.2-18-11v-9.2c4.3 8.8 9.6 13.6 15.9 14.2H210v6h-15zm4-19.2v-2l2-.7V204c0-.6.4-1 1-1s1 .4 1 1v2.1l2 .7v2l-2 4v2.2h-2v-2.2l-2-4zm5 4.2l2-4v-3l-2-.7V204c0-1.1-.9-2-2-2s-2 .9-2 2v1.3l-2 .7v3l2 4v2l-4 3-2 .7V157h16v61.7l-2-.7-4-3v-2zm-7.5 5.9l3.9-2.9h3.3l3.9 2.9 2.5.8v1.3h-16v-1.3l2.4-.8zM208 229v38h-12v-38h12zm2 51h-14v-12h14v12zm6 0h-5v-13h-2v-38h2v-73h-18v65c-2.1-.2-4.1-.9-6-2.2V151h24.1v-1H187v-4h29.7l-1.7 5h2v116h-1v13zm33 0h-32v-12h26v-1h-25V151h30v117h1v12z"/></symbol><symbol xmlns="http://www.w3.org/2000/svg" id="schongau" viewBox="0 0 340.4 145.6"><style>.st0{fill:#131820}</style><path class="st0" d="M340 77.7l.4-.9L295.3 57l-18.5-4.5-.1-.1-25.7-6.3-18.3-5.8-18.3-3L175.9 14l13.5-8.9 22.4 6.3-16.5 6.3-8.3-1.1-.1 1 8.5 1.2 18-6.8 2.3.6L272 41.1l19-1.2-10.3 10 .7.7 10.9-10.5L327 57.4l.4-.9L292 38.8l-19.6 1.3-5-2.5 20.8-14.4 20 11 .5-.9L288.1 22l-3.9 2.7-30.9-15.2H245L225 0l-15.2 9.6.1.2L189.5 4 175 13.5l-2.2-1.3-19.7-8-9.4 4.8-1.2 1-4.4-1-7.3 4.7-6.2-2.4-6 2.4-8.1-2.4h-9.3L84.2 4 17.5 55.7 0 57.1l.1 1 73.5-6 64.7-42 3.3.6-18.4 14.9.6.8 20.5-16.7L153 5l19.4 7.9.6.4-29.6 17-18 3.7-.2.1L108 44.9l-.9-.6-.2-3.5c0-.7-.6-1.2-1.3-1.2s-1.3.5-1.3 1.2l-.3 3.6c-2.6 1.9-7.4 3.8-8.6 8.3L71.5 67.5l-44.6 8.3.2 1 44.7-8.4.2-.1 23.1-14.4c0 .3-.1.6-.1.9 0 2.1.4 3.9 1 5.3v.3h1v18h-2v19.3L74.8 83.6 65 91.1v-3.5h-9V98l-14 10.8.6.8 2.4-1.8v36.8h-8v-3c2.8-.3 5-2.6 5-5.5 0-1.3-.5-2.5-1.3-3.5.2-.5.3-1 .3-1.5 0-2.5-2-4.5-4.5-4.5s-4.5 2-4.5 4.5c0 .5.1 1 .3 1.5-.8 1-1.3 2.2-1.3 3.5 0 2.9 2.2 5.2 5 5.5v3h-5v1h207v-1h-6v-8.5l7.8 4-.8 4.5 1 .2 3.7-20.2 4.4-2.2v22.2h-3v1h70v-1h-3v-3c2.8-.3 5-2.6 5-5.5 0-1.3-.5-2.5-1.3-3.5.2-.5.3-1 .3-1.5 0-2.3-1.8-4.2-4-4.4V107.8l1.7 1.2.6-.8-12.4-8.7v-9.9h-9v3.6L280 84l-5.6 3.9-15.2-11.7-12.5 8.2-18.1-15L206 53.3l-5.8-10.7-.9.5 5.9 10.9L228 70.2l17.8 14.7-22.5 14.8-1.4-1V81.6h-9v10.6L201 83.6l-3.8 2.6c-1.5-1.8-2.9-2.6-5.3-2.6H187l.1-1c0-2-.7-3.9-1.8-5.4L199 61l-5.6-22.2.5-7.1-1-.1-.5 7.2v.2l5.4 21.7-13.4 15.7c-1.6-1.8-4-2.9-6.6-2.9-.8 0-1.6.1-2.3.3-2.9-3.8-7.5-6.3-12.7-6.3-8.8 0-16 7.2-16 16v2c-1.6 0-3.1.3-4.4.9l-4.1-2.9-7.5 5.1v-4.1h-9v10.2l-6 4V80.9v.1L139 60.6l19.2-29.2L179 17l4.5 2.7-7 19.5 1.1 8.6-2.5 5.4.9.4 2.6-5.7-1.1-8.6 6.9-19 29.5 18 18.5 3.1 18.3 5.7 21.7 5.3 11.2 17-8.8 9.4.7.7 9.4-10-11-16.7 2.6.6 20.2 15.2.6-.8L278.8 54l16.2 4 45 19.7zM225 1.1l19.7 9.4H253l30.2 14.8-16.6 11.5.5.7L216 11.6l-5.3-1.5 14.3-9zm-151.7 50l-53.9 4.4 65-50.4 15.8 6.9-15.5 9.5.5.9 16.1-9.9-.1-.1h9l8.3 2.4 6-2.4 5.2 2-56.4 36.7zM36 140.5c-2.3-.2-4-2.1-4-4.5 0-1.1.4-2.1 1-2.9l.4-.4-.2-.5c-.1-.4-.2-.8-.2-1.2 0-1.9 1.6-3.5 3.5-3.5s3.5 1.6 3.5 3.5c0 .4-.1.8-.2 1.2l-.2.5.4.4c.7.8 1 1.8 1 2.9 0 2.3-1.7 4.2-4 4.4V139h-1v1.5zm60.8-80.9c-.5-1.3-.8-2.8-.8-4.6 0-3.1 1.6-5.2 4.8-7.4.4-.3 3-1.9 3.7-2.4l.4-.3.3-4.1c0-.2.2-.3.3-.3s.3.1.3.3l.3 4 .4.3c.5.3 3 1.8 3.7 2.3 3.2 2.1 4.8 4.3 4.8 7.6 0 1.8-.2 3.3-.7 4.6h-5c1.4-4.4 1.2-7.1-1.9-10.3l-.7.7c2.8 3 3 5.3 1.6 9.7h-5.5c-.1-.1-.1-.3-.2-.4-.1-.2-.1-.4-.2-.5-.3-.9-.4-1.9-.2-4l-1-.1c-.2 2.3-.2 3.3.2 4.4.1.2.1.3.2.6h-4.8zm5.2 8v-3h-1v3h-3v-7h15v7h-11zm11 1v10h-11v-10h11zm-12 0v10h-3v-10h3zm-5 11h5v22.5l-5-3.5v-19zm-39 8.9h7v3.3l-7 5.4v-8.7zm48 56.1H46v-34h59v34zm0-36v1H46v-2h59v1zm-41-2v-9h15v9H64zm16 0v-9h4v9h-4zm5 0v-10H63v10H46.5l28.3-21.8 30.8 21.8H85zm17-3.8V79.6h13.1l-.1 19.8-9.1 6.1-3.9-2.7zm60 41.8h-4v-9h4v9zm6.8-39.2l-.6-3.3L177 98v2.1l-7.9 5.4-.3-.1zm27.2 39.2h-4v-9h4v9zm4 0h-3v-10h-6v10h-22v-17h31v17zm0-18h-31v-2h31v2zm-25-3v-9h3v9h-3zm4 0v-9h4v9h-4zm5 0v-9h3v9h-3zm8 0v-9h4v9h-4zm8 0h-3v-10h-6v10h-3v-10h-14v10h-5v-13h31v13zm0-14h-31v-2h31v2zm8 30v2.2c-2.2-.3-4-2.1-4-4.4 0-2.6 2-4.8 4.5-4.8s4.5 2.2 4.5 4.8c0 2.3-1.8 4.2-4 4.4v-2.2h-1zm0-8v-2h4v3.3c-.9-.8-2.1-1.3-3.5-1.3h-.5zm13 8.2c-2.2-.3-4-2.1-4-4.4 0-3.5 2.5-8.8 4.5-8.8s4.5 5.3 4.5 8.8c0 2.3-1.8 4.2-4 4.4v-3.2h-1v3.2zm19-.7l-8-4.1v-10.2l4.9.6 4.6 5.3-1.5 8.4zm-8-15.3v-4.1l4 4.6-4-.5zm16-2.6l-4.2 2.1 1.4-8-1-.2-2.6 14.2-9.7-11.2v-10.8l.5.1 2.9 2.1.6-.8-2.5-1.8.1-.1c.6-.5 1.3-.9 2-1.3.3-.2.7-.3 1-.5.3-.1.7-.3 1-.4h.1c1.9-.7 3.9-1 5.7-1 1.5 0 3 .2 4.4.6.3.1.5.2.8.2.1 0 .3.1.4.1h.1c.4.1.7.3 1 .4l-4.5 3.1.6.8 1.7-1.2v13.6zm18-14.6v38h-17v-37.5l17-12v11.5zm10 38h-4v-9h4v9zm35 0h-34v-10h-6v10h-4v-17h41.7c-1 .8-1.7 2.1-1.7 3.5 0 .5.1 1 .3 1.5-.8 1-1.3 2.2-1.3 3.5 0 2.9 2.2 5.2 5 5.5v3zm-40-31v10h-4v-13h44v13h-34v-10h-6zm5 1v9h-4v-9h4zm-5 10h40v2h-44v-2h4zm44 6.5c0 .4-.1.8-.2 1.2l-.2.5.4.4c.7.8 1 1.8 1 2.9 0 2.3-1.8 4.2-4 4.4v-2.9h-1v2.9c-2.2-.3-4-2.1-4-4.4 0-1.1.4-2.1 1-2.9l.4-.4-.2-.5c-.1-.4-.2-.8-.2-1.2 0-1.9 1.6-3.5 3.5-3.5s3.5 1.5 3.5 3.5zm-4-21.5h-44v-2h44v2zm-17-19.1h7v8.3l-7-4.9v-3.4zm-14-5.3l30.3 21.4H267V94.4l13-9.2zm-20.8-7.8l14.4 11.1-22.5 15.9c-.9-.5-1.9-.8-2.9-1.1-1.5-.4-3.1-.6-4.7-.6-4.1 0-7.9 1.4-10.8 3.8l-8.4-6 34.9-23.1zM214 82.5h7v15.4l-7-5.1V82.5zm-13 45.1V84.9l.1-.1 29.9 21.6v38.2h-9v-3.7c2.8-.3 5-2.6 5-5.5 0-3-2.3-9.8-5.5-9.8s-5.5 6.7-5.5 9.8c0 2.9 2.2 5.2 5 5.5v3.7h-12v-1.7c2.8-.3 5-2.6 5-5.5 0-1.2-.4-2.4-1-3.3v-5.5h-6v3.2c-2.4.7-4 3-4 5.6 0 2.9 2.2 5.2 5 5.5v1.7h-7v-17zm-1-42v21h-30.6l30.6-21zm-22 13.8v-7.9h7v3.1l-7 4.8zm-31-12.8h1v-3c0-8.3 6.7-15 15-15 4.7 0 9.1 2.2 11.9 5.9l.4.5.6-.2c.7-.2 1.3-.3 2-.3 4.4 0 8 3.6 8 8v.9l-.1 1.1h6.2c2.1 0 3.4.9 4.4 2.3L186 94v-3.4h-9V97l-9 4.1-1.5-8.5 4.5-5.3 5.7-.7-.1-1-4.6.5 4.2-4.9-.8-.7-9.2 10.6-2.6-14.2-1 .2L164 85l-9-4.9-.5.9 3.5 1.9-4.4 2 .4.9 5-2.3 5.1 2.8 3.3 18-12.8-9.2-2.8-5.3-.9.5L153 94l-9.5-6.8c1.1-.4 2.3-.6 3.5-.6zm-24-1.1h7v3.8l-7 4.7v-8.5zm-2 11.1l17.5-11.8 3.1 2.2h-.1c1.7 1.3 9.1 6.6 22.1 15.8l4.3 3.1.1.6h-47v-9.9zm0 11h47v2h-47v-2zm0 3h47v13h-5v-10h-6v10h-5v-10h-14v10h-3v-10h-11v10h-3v-13zm41 4v9h-4v-9h4zm-11 0v9h-12v-9h12zm-17 0v9h-9v-9h9zm-13 10h47v2h-47v-2zm0 3h47v17h-5v-10h-6v10h-36v-17zm-1-30.3v47.3h-14v-37.8l14-9.5zm37.8-66.8l-19.3 29.3L116 79.6v-1h-2v-18h1v-.1c.6-1.5 1-3.3 1-5.5 0-2.9-1.2-4.9-2.8-6.5l13-8.2h9v-1H126l-13.5 8.5c-1.1-.9-2.4-1.7-3.5-2.4L125.7 35l18-3.7L173.9 14v-.1l4.2 2.5-20.3 14.1z"/><path class="st0" d="M116 112.6h-6v8h6v-8zm-1 7h-4v-6h4v6zM213 112.6h-6v8h6v-8zm-1 7h-4v-6h4v6zM79 123.6v-8h-6v5h1v-4h4v6h-5v1h5.5zM224 112.6h-6v8h6v-8zm-1 7h-4v-6h4v6zM63 123.6h5v-8H51v8h12zm0-7h4v6h-4v-6zm-11 0h10v6H52v-6zM90 115.6h-6v8h6v-8zm-1 7h-4v-6h4v6zM101 123.6v-8h-1v7h-4v-6h2v-1h-3v8h5.5zM147 130.6h-9v11h14v-11h-5zm-5 10h-3v-9h3v9zm5 0h-4v-9h4v9zm4 0h-3v-9h3v9zM188 130.6h-14v11h14v-11zm-1 10h-12v-9h12v9zM124 141.6h11v-11h-11v11zm1-10h9v9h-9v-9zM116 128.6h-6v8h6v-8zm-1 7h-4v-6h4v6zM79 131.6h-6v8h6v-8zm-1 7h-4v-6h4v6zM57 139.6h11v-8H51v8h6zm0-7h10v6H57v-6zm-5 0h4v6h-4v-6zM90 131.6h-6v8h6v-8zm-1 7h-4v-6h4v6zM101 131.6h-6v8h6v-8zm-1 7h-4v-6h4v6zM130 93.7l.6.8 7.6-4.7 15.2 10.8.6-.8-15.8-11.2zM189.2 103.6v-1h-6l12.8-9.2-.6-.8-15.4 11zM261 112.6h-6v8h6v-8zm-1 7h-4v-6h4v6zM305 113.6h-23v8h23v-8zm-1 7h-21v-6h21v6zM282 140.6h6v-8h-6v8zm1-7h4v6h-4v-6zM291 140.6h14v-8h-14v8zm1-7h12v6h-12v-6zM261 128.6h-6v8h6v-8zm-1 7h-4v-6h4v6z"/></symbol><symbol xmlns="http://www.w3.org/2000/svg" id="prokhorovka" viewBox="0 0 246 366"><style>.st0{fill:#131820}</style><path class="st0" d="M122.5 177c-3.6 0-6.5 2.9-6.5 6.5V206h3.1v-1H117v-5h5v6h7v-22.5c0-3.6-2.9-6.5-6.5-6.5zm5.5 28h-5v-5h5v5zm0-6h-11v-15.5c0-3 2.5-5.5 5.5-5.5s5.5 2.5 5.5 5.5V199zM102 177c-2.2 0-4 1.8-4 4v25h8v-25c0-2.2-1.8-4-4-4zm3 28h-6v-5h6v5zm0-6h-6v-18c0-1.7 1.3-3 3-3s3 1.3 3 3v18zM147 200v-19c0-2.2-1.8-4-4-4s-4 1.8-4 4v25h8v-6zm-1 5h-6v-5h6v5zm0-6h-6v-18c0-1.7 1.3-3 3-3s3 1.3 3 3v18zM119 103v17h6v-17c0-1.7-1.3-3-3-3s-3 1.3-3 3zm1 0c0-1.1.9-2 2-2s2 .9 2 2v16h-4v-16zM117.5 168c1.4 0 2.5-1.1 2.5-2.5s-1.1-2.5-2.5-2.5-2.5 1.1-2.5 2.5 1.1 2.5 2.5 2.5zm0-4c.8 0 1.5.7 1.5 1.5s-.7 1.5-1.5 1.5-1.5-.7-1.5-1.5.7-1.5 1.5-1.5zM100 165.5c0-1.4-1.1-2.5-2.5-2.5v1c.8 0 1.5.7 1.5 1.5s-.7 1.5-1.5 1.5-1.5-.7-1.5-1.5h-1c0 1.4 1.1 2.5 2.5 2.5s2.5-1.1 2.5-2.5zM127.5 168v-1c-.8 0-1.5-.7-1.5-1.5s.7-1.5 1.5-1.5 1.5.7 1.5 1.5h1c0-1.4-1.1-2.5-2.5-2.5s-2.5 1.1-2.5 2.5 1.1 2.5 2.5 2.5zM107.5 168c1.4 0 2.5-1.1 2.5-2.5s-1.1-2.5-2.5-2.5-2.5 1.1-2.5 2.5 1.1 2.5 2.5 2.5zm0-4c.8 0 1.5.7 1.5 1.5s-.7 1.5-1.5 1.5-1.5-.7-1.5-1.5.7-1.5 1.5-1.5zM137.5 163c-1.4 0-2.5 1.1-2.5 2.5s1.1 2.5 2.5 2.5 2.5-1.1 2.5-2.5-1.1-2.5-2.5-2.5zm0 4c-.8 0-1.5-.7-1.5-1.5s.7-1.5 1.5-1.5 1.5.7 1.5 1.5-.7 1.5-1.5 1.5zM147.5 168c1.4 0 2.5-1.1 2.5-2.5s-1.1-2.5-2.5-2.5-2.5 1.1-2.5 2.5 1.1 2.5 2.5 2.5zm0-4c.8 0 1.5.7 1.5 1.5s-.7 1.5-1.5 1.5-1.5-.7-1.5-1.5.7-1.5 1.5-1.5zM66 323c0-1.7-1.3-3-3-3s-3 1.3-3 3v20h-1v3h8v-3h-1v-20zm-5 0c0-1.1.9-2 2-2s2 .9 2 2v20h-4v-20zm5 22h-6v-1h6v1zM171 323c0-1.7-1.3-3-3-3s-3 1.3-3 3v20h-1v3h8v-3h-1v-20zm-5 0c0-1.1.9-2 2-2s2 .9 2 2v20h-4v-20zm5 22h-6v-1h6v1zM156 323c0-1.7-1.3-3-3-3s-3 1.3-3 3v20h-1v3h8v-3h-1v-20zm-5 0c0-1.1.9-2 2-2s2 .9 2 2v20h-4v-20zm5 22h-6v-1h6v1zM143 283v21h6v-21c0-1.7-1.3-3-3-3s-3 1.3-3 3zm1 0c0-1.1.9-2 2-2s2 .9 2 2v20h-4v-20zM66 270c0-1.7-1.3-3-3-3s-3 1.3-3 3v5h6v-5zm-1 4h-4v-4c0-1.1.9-2 2-2s2 .9 2 2v4zM73 270c0-2.8 2.2-5 5-5s5 2.2 5 5v76.1l1 .1V270c0-3.3-2.7-6-6-6s-6 2.7-6 6v50.8h1V270zM178 270c0-2.8 2.2-5 5-5s5 2.2 5 5v76l1 .1V270c0-3.3-2.7-6-6-6s-6 2.7-6 6v37.4h1V270z"/><path class="st0" d="M163 270c0-2.8 2.2-5 5-5s5 2.2 5 5v5.5h1V270c0-3.3-2.7-6-6-6s-6 2.7-6 6v76h1v-76z"/><path class="st0" d="M173 280h1v66h-1zM57 280h1v61h-1z"/><path class="st0" d="M58 270c0-2.8 2.2-5 5-5s5 2.2 5 5v77h1v-77c0-3.3-2.7-6-6-6s-6 2.7-6 6v5.5h1V270zM171 270c0-1.7-1.3-3-3-3s-3 1.3-3 3v5h6v-5zm-1 4h-4v-4c0-1.1.9-2 2-2s2 .9 2 2v4zM81 270c0-1.7-1.3-3-3-3s-3 1.3-3 3v5h6v-5zm-1 4h-4v-4c0-1.1.9-2 2-2s2 .9 2 2v4zM186 270c0-1.7-1.3-3-3-3s-3 1.3-3 3v5h6v-5zm-1 4h-4v-4c0-1.1.9-2 2-2s2 .9 2 2v4zM97 275h3v-5c0-3.3-2.7-6-6-6s-6 2.7-6 6v5h9zm-1-1h-4v-4c0-1.1.9-2 2-2s2 .9 2 2v4zm-7-4c0-2.8 2.2-5 5-5s5 2.2 5 5v4h-2v-4c0-1.7-1.3-3-3-3s-3 1.3-3 3v4h-2v-4zM111 275h3v-5c0-3.3-2.7-6-6-6s-6 2.7-6 6v5h9zm-1-1h-4v-4c0-1.1.9-2 2-2s2 .9 2 2v4zm-7-4c0-2.8 2.2-5 5-5s5 2.2 5 5v4h-2v-4c0-1.7-1.3-3-3-3s-3 1.3-3 3v4h-2v-4zM135 275h9v-5c0-3.3-2.7-6-6-6s-5.9 2.6-6 5.8v.2l3 4.3v.7zm5-1h-4v-4c0-1.1.9-2 2-2s2 .9 2 2v4zm-7-4.3c.2-2.6 2.3-4.7 5-4.7 2.8 0 5 2.2 5 5v4h-2v-4c0-1.7-1.3-3-3-3s-3 1.3-3 3v2.5l-2-2.8zM155 275h3v-5c0-3.3-2.7-6-6-6s-6 2.7-6 6v5h9zm-1-1h-4v-4c0-1.1.9-2 2-2s2 .9 2 2v4zm-7-4c0-2.8 2.2-5 5-5s5 2.2 5 5v4h-2v-4c0-1.7-1.3-3-3-3s-3 1.3-3 3v4h-2v-4zM81 323c0-1.7-1.3-3-3-3s-3 1.3-3 3v20h-1v3h8v-3h-1v-20zm-5 0c0-1.1.9-2 2-2s2 .9 2 2v20h-4v-20zm5 22h-6v-1h6v1zM98 283v21h6v-21c0-1.7-1.3-3-3-3s-3 1.3-3 3zm1 0c0-1.1.9-2 2-2s2 .9 2 2v20h-4v-20zM185 323c0-1.7-1.3-3-3-3s-3 1.3-3 3v20h-1v3h8v-3h-1v-20zm-5 0c0-1.1.9-2 2-2s2 .9 2 2v20h-4v-20zm5 22h-6v-1h6v1zM96 323c0-1.7-1.3-3-3-3s-3 1.3-3 3v20h-1v3h8v-3h-1v-20zm-5 0c0-1.1.9-2 2-2s2 .9 2 2v20h-4v-20zm5 22h-6v-1h6v1zM115 346.5c0-3.5 2.8-6.5 6.5-6.5v-1c-4.1 0-7.5 3.4-7.5 7.5V358h1v-11.5zM53 331c0-1.7-1.3-3-3-3s-3 1.3-3 3v13h6v-13zm-1 12h-4v-12c0-1.1.9-2 2-2s2 .9 2 2v12zM44 331c0-1.7-1.3-3-3-3s-3 1.3-3 3v13h6v-13zm-1 12h-4v-12c0-1.1.9-2 2-2s2 .9 2 2v12zM24 341c0-1.7-1.3-3-3-3s-3 1.3-3 3v9h6v-9zm-1 8h-4v-8c0-1.1.9-2 2-2s2 .9 2 2v8zM29 331h1v16h-1zM29 349h1v6h-1zM199 331c0-1.7-1.3-3-3-3s-3 1.3-3 3v13h6v-13zm-1 12h-4v-12c0-1.1.9-2 2-2s2 .9 2 2v12zM208 331c0-1.7-1.3-3-3-3s-3 1.3-3 3v13h6v-13zm-1 12h-4v-12c0-1.1.9-2 2-2s2 .9 2 2v12zM225 338c-1.7 0-3 1.3-3 3v9h6v-9c0-1.7-1.3-3-3-3zm2 11h-4v-8c0-1.1.9-2 2-2s2 .9 2 2v8zM216 327h1v8h-1zM216 322h1v3h-1z"/><path class="st0" d="M244 363v-2h-5v-9h1v-3h-1v-10h1v-3h-1v-19h-16l-3 2.7V301h-4v1h-25v-52.4l-8-4.6-4 2.3v-8.7l-7.5-4.6-2.5 1.5v-8.9l-7-4.6v-6.4l-7-4.6-3 2v-42.7l1-.8v-15.9l-5.5-4.6-.5.4V125.6l-6.5-4.6-2.5 1.8V120h5v-9h-2v-1.1c1.7-.4 3-2 3-3.9s-1.3-3.4-3-3.9V101h2v-9h-5v-6.4l1.1-1.7L138 79h-.1c2.1-3.4 3.1-7 3.1-10.7 0-1.1-.2-2.3-.7-3.5-1.2-3.2-3.7-6.6-8.7-11.5l-.7-.6c-1.3-1.3-4.3-4.2-5.2-5.1-1.7-1.7-2.7-3-3.1-4 .7-.4 1.2-1.2 1.2-2.1 0-.8-.4-1.4-.9-1.9V23h10v2h3v-2h2v-3h-2v-2h-3v2h-10v-6h4v2h3v-2h2v-3h-2V9h-3v2h-4V6h2V3h-2V0h-3v3h-2v3h2v5h-3V9h-3v2h-2v3h2v2h3v-2h3v6h-9v-2h-3v2h-2v3h2v2h3v-2h9V39.7c-.5.4-.9 1.1-.9 1.9 0 .9.5 1.7 1.2 2.1-.7 1.7-2.2 3.5-5.7 6.7l-1 .9c-.8.7-1.9 1.7-2.3 2.1-6.9 6.3-9.4 10.4-9.4 15 0 4.2 1.3 8.3 3.9 11.6l-.9 3.9 1.1 1.8V92h-5v9h2v1.1c-1.7.4-3 2-3 3.9s1.3 3.4 3 3.9v1.1h-2v9h5v2.1l-1.5-1.1-6.5 4.6V149.4l-.5-.4-5.5 4.6v15.8l1 .8V213l-3-2-7 4.6v7.1l-6 3.9v8.9l-2.5-1.5-7.5 4.6v8.7l-4-2.3-8 4.6V302H30v-1h-4v16H7v19H6v3h1v8h1v-8h3v10H6v3h1v9H2v2H0v3h246v-3h-2zM138 93h4v7h-2v2.9l.8.2c1.3.3 2.2 1.5 2.2 2.9s-.9 2.6-2.2 2.9l-.8.2v2.9h2v7h-4V93zM8 330h3v6H8v-6zm-1 8v-1h4v1H7zm0 12h4v1H7v-1zm4 2v9H8v-9h3zm15 13H1v-1h2v-2h23v3zm-14-4v-31h3v31h-3zm14 0H16v-31h10v31zm0-32H8v-11h18v11zm1 1v-12h8v43h-8v-31zm28 35H27v-3h28v3zm0-4H36v-43h19v43zm0-44H27v-15h2v1h26v14zm92.5-166.7l4.5 3.7v15l-4.5 3.7-4.5-3.7v-3h-1v3l-4.5 3.7-4.5-3.7v-15l4.5-3.7 4.5 3.7v3h1v-3l4.5-3.7zM133 210v-39.7l4.5 3.7 5-4.2 5 4.2 3.5-2.9v42.5l-2.5 1.6-6.5-4.2-6.5 4.3-6.5-4.3-6.5 4.3-6.5-4.3-3 2v-42.7l4.5 3.7 5-4.2 5 4.2 4.5-3.7V210h1zm2-58.9V138c0-1.1.9-2 2-2s2 .9 2 2v12.2l-1.5-1.2-2.5 2.1zm3-67.3l-.7 1.2h-30.5l-.7-1.2.9-3.6h30.3l.7 3.6zM128 93v3.8h1V93h4v7h-5v1h1v2.8c-.6.5-1 1.3-1 2.2s.4 1.7 1 2.2v2.8h-1v9h6v-9h-1v-2.8c.6-.5 1-1.3 1-2.2s-.4-1.7-1-2.2V101h1v-8h3v30.5l-2.5 1.8-6-4.2-6 4.2-6-4.2-6 4.2-3.5-2.5V86h30v6h-17v1h8zm5 19v7h-4v-7h4zm-3-1v-2.2c.3.1.6.2 1 .2s.7-.1 1-.2v2.2h-2zm1-3c-1.1 0-2-.9-2-2s.9-2 2-2 2 .9 2 2-.9 2-2 2zm-1-4.8V101h2v2.2c-.3-.1-.6-.2-1-.2s-.7.1-1 .2zM110 22v2h-1v-2h-2v-1h2v-2h1v2h11v-8h-5v2h-1v-2h-2v-1h2v-2h1v2h5V5h-2V4h2V1h1v3h2v1h-2v7h6v-2h1v2h2v1h-2v2h-1v-2h-6v8h12v-2h1v2h2v1h-2v2h-1v-2h-12v17.1c-.2 0-.3-.1-.5-.1s-.3 0-.5.1V22h-11zm10.1 19.6c0-.8.6-1.4 1.4-1.4s1.4.6 1.4 1.4c0 .8-.6 1.4-1.4 1.4s-1.4-.7-1.4-1.4zM103 68.4c0-4.3 2.5-8.2 9.1-14.3.4-.4 1.5-1.4 2.3-2.1l1-.9c3.5-3.3 5.1-5.1 5.9-6.9h.6c.5 1.1 1.6 2.4 3.3 4.2.9.9 3.8 3.7 5.2 5.1l.7.6c4.9 4.8 7.3 8 8.4 11.1.4 1.1.6 2.2.6 3.1 0 3.6-1 7.1-3.1 10.4l-.3.3h-30.1c-2.4-3.1-3.6-6.8-3.6-10.6zm-1 50.6v-7h2v-2.9l-.8-.2c-1.3-.3-2.2-1.5-2.2-2.9s.9-2.6 2.2-2.9l.8-.2V100h-2v-7h4v26h-4zm-3 10v-2.9l5.5-3.9 5.5 3.9v2.9h1v-2.9l5.5-3.9 5.5 3.9v2.9h1v-2.9l5.5-3.9 5.5 3.9v2.9h1v-2.9l3-2.1 2.5-1.8 5.5 3.9V150.2l-3.5 2.9-2.5-2.1v-13c0-1.7-1.3-3-3-3s-3 1.3-3 3v13.9l-1.3 1.1h-.4l-4.3-3.6V132h-7v1h6v16.4l-2 1.7V138c0-1.7-1.3-3-3-3s-3 1.3-3 3v12.2l-1.5-1.2-4.5 3.7V132h-1v20.7l-2-1.7v-13c0-1.7-1.3-3-3-3s-3 1.3-3 3v13.9l-1.5 1.2-3.5-2.9V129zm25 9v13.9l-1.5 1.2-2.5-2.1v-13c0-1.1.9-2 2-2s2 .9 2 2zm-15 0v12.2l-1.5-1.2-2.5 2.1V138c0-1.1.9-2 2-2s2 .9 2 2zm-16 28v-12l4.5-3.7 4.5 3.7v3h1v-3l4.5-3.7 4.5 3.7v3h1v-3l4.5-3.7 4.5 3.7v3h1v-3l4.5-3.7 4.5 3.7v15l-4.5 3.7-4.5-3.7v-3h-1v3l-4.5 3.7-4.5-3.7v-8h-1v8l-4.5 3.7-4.5-3.7v-3h-1v3l-4.5 3.7L93 169v-3zm19 4.3v43.4l-2.5 1.6-6.5-4.3-6.5 4.3-2.5-1.6v-42.5l3.5 2.9 5-4.2 5 4.2 4.5-3.8zM84 219v-2.9l6-3.9 6 3.9v2.9h1v-2.9l6-3.9 6 3.9v2.9h1v-2.9l6-3.9 6 3.9v2.9h1v-2.9l6-3.9 6 3.9v2.9h1v-2.9l6-3.9 6 3.9v2.9h1v-2.9l6-3.9 6 3.9v6.6l-5.5 3.6-6.5-4.3-6.5 4.3-6.5-4.3-6.5 4.3-6.5-4.3-6.5 4.3-6.5-4.3-6.5 4.3L97 222l-6.5 4.3L84 222v-3zM70 365H56v-3h14v3zm0-4H56V260h14v101zm15 4H71v-3h14v3zm16 0H86v-3h15v3zm8 0h-7v-3h7v3zm0-31.6l-1 .6 1 3v24h-7v-39h7v11.4zm8 31.6h-7v-3h7v3zm11-4v4h-10v-17c0-2.8 2.2-5 5-5s5 2.2 5 5v13zm8 4h-7v-3h7v3zm0-4h-7v-13c0-3.3-2.7-6-6-6s-6 2.7-6 6v13h-7v-24h26v24zm.3-25h-26.6l-.5-1.6.7-.4h.1l13-7.8 13 7.8h.1l.7.4-.5 1.6zm-26.3-3.2V322h26v10.8l-13-7.8-13 7.8zm34 32.2h-7v-3h7v3zm0-4h-7v-24l1-3-1-.6V322h4v-1h-39v-5h42v45zm-19.1-84.7l.4.5c1.2 1.7 1.6 2.6 1.6 3.6 0 1.1-.3 2-1.7 3.3l-.2.2h-4.1c-1.5-1.4-1.9-2.3-1.9-3.5 0-.7.3-1.5 1.1-2.7.2-.3.4-.7.8-1.2l.4-.5c.8-1.1 1.3-2 1.6-2.8.5.9 1.1 1.9 2 3.1zM122 270c0-.6.4-1 1-1s1 .4 1 1-.4 1-1 1-1-.4-1-1zm-1 17h4v9h-4v-9zm0-1v-1h4v1h-4zm2 11h10v9.5l-1-.5h-.1c-.3-2.9-2.1-5.6-4.8-6.9L123 297l-4.2 2.1c-2.7 1.4-4.4 4-4.8 6.9h-.1l-1 .5V297H123zm5.3 12l3.7-1.9 3.7 1.9c2.3 1.2 3.9 3.4 4.2 6H124c.4-2.5 2-4.8 4.3-6zm-5.2 6h-.1c-.3-2.9-2.1-5.5-4.8-6.9l-3.1-1.6c.2-2.8 1.8-5.3 4.3-6.5l3.7-1.9 3.7 1.9c2.5 1.3 4.1 3.8 4.3 6.5l-3.1 1.6c-2.8 1.4-4.6 4-4.9 6.9zm-9.1-7.9l3.7 1.9c2.3 1.2 3.9 3.4 4.2 6H106c.3-2.5 1.9-4.8 4.2-6l3.8-1.9zm46 57.9h-15v-3h15v3zm0-4h-15v-46h-4.1c-.3-2.9-2.1-5.5-4.8-6.9L134 307v-11h-8v-11.5c1.4-1.2 2-2.4 2-4 0-1.4-.6-2.6-1.8-4.2l-.4-.5c-1.3-1.8-1.9-2.8-2.1-3.9.8-.3 1.3-1 1.3-1.9 0-1.1-.9-2-2-2s-2 .9-2 2c0 .9.6 1.6 1.3 1.9-.1.9-.6 1.9-1.8 3.6l-.4.5c-.4.6-.6.9-.9 1.3-.9 1.4-1.3 2.3-1.3 3.2 0 1.5.5 2.7 1.9 3.9v11.5h-8v11l-2.2 1.1c-2.7 1.4-4.4 4-4.8 6.9H101v46H86v-98.4h-1V361H71V260h89v101zm15 4h-14v-3h14v3zm0-4h-14V260h14v101zm15 4h-14v-3h14v3zm0-63v59h-14V260h14v42zm0-49v6H56v-8.8l7-4 7 4v2.8h1v-3.4l-3-1.7v-8.8l6.5-4 6.5 4v2.9h1v-2.9l6.5-4 6.5 4v2.9h1v-2.9l6.5-4 6.5 4v2.9h1v-2.9l6.5-4 5.5 3.4h.1l.9.6v2.9h1v-3.3l5.5-3.5 4.1 2.6.6-.8-4.8-2.9-6.5 4-6.5-4-7 4.3-7-4.3-7 4.3-7-4.3-7 4.3-3.7-2.3h.3v-8.9l6-3.9 6 3.9v2.9h1v-2.9l6-3.9 6 3.9v2.9h1v-2.9l6-3.9 6 3.9v2.9h1v-2.9l6-3.9 6 3.9v2.9h1v-2.9l6-3.9 6 3.9v2.9h1v-2.9l6-3.9 6 3.9v2.9h1v-2.9l6-3.9 6 3.9v8.9h.2l-3.7 2.3-7-4.3-7 4.3-7-4.3-7.5 4.6v3.4h1v-2.9l6.5-4 6.5 4v2.9h1v-2.9l6.5-4 6.5 4v2.9h1v-2.9l6.5-4 6.5 4v8.8l-2.5 1.4-7.5-4.4-7.5 4.3-7.5-4.3-7.5 4.3-7.5-4.3-7.5 4.3-7.5-4.3-7.5 4.3-7.5-4.3-7.5 4.3L93 245l-7.5 4.3L78 245l-3.4 2 1 .6 2.4-1.4 7 4v2.8h1v-2.8l7-4 7 4v2.8h1v-2.8l7-4 7 4v2.8h1v-2.8l7-4 7 4v2.8h1v-2.8l7-4 7 4v2.8h1v-2.8l7-4 7 4v2.8h1v-2.8l7-4 7 4v2.8h1v-2.8l7-4 7 4v2.8zm29 112h-28v-47h19v43h-17v1h26v3zm0-44.4V361h-8v-43h8v2.6zm0-3.6h-28v-14h26v-1h2v15zm20 34h-4v-1h4v1zm-1 1v9h-3v-9h3zm-3-3v-10h3v10h-3zm4-11h-4v-1h4v1zm-4-2v-6h3v6h-3zm-15-15l3.3-3H238v11h-18v-8zm14 9v31h-3v-31h3zm-14 0h10v31h-10v-31zm25 35h-25v-3h23v2h2v1z"/><path class="st0" d="M117 313c0-1.7-1.3-3-3-3s-3 1.3-3 3v1h6v-1zm-5 0c0-1.1.9-2 2-2s2 .9 2 2h-4zM132 310c-1.7 0-3 1.3-3 3v1h6v-1c0-1.7-1.3-3-3-3zm-2 3c0-1.1.9-2 2-2s2 .9 2 2h-4zM123 302c-1.7 0-3 1.3-3 3v1h6v-1c0-1.7-1.3-3-3-3zm-2 3c0-1.1.9-2 2-2s2 .9 2 2h-4zM112 334.1h22l-11-5.6-11 5.6zm4.2-1l6.8-3.5 6.8 3.5h-13.6zM110 101h1v2.8c-.6.5-1 1.3-1 2.2s.4 1.7 1 2.2v2.8h-1v9h6v-9h-1v-2h-1v2h-2v-2.2c.3.1.6.2 1 .2v-1c-.5 0-1-.2-1.4-.5l-.4-.6c-.1-.3-.2-.6-.2-.9 0-1.1.9-2 2-2s2 .9 2 2h1c0-.9-.4-1.7-1-2.2V101h1v-9h-6v9zm5 11v7h-4v-7h4zm-1-8.8c-.3-.1-.6-.2-1-.2s-.7.1-1 .2V101h2v2.2zM111 93h4v7h-4v-7zM92.5 318.5l.1-1c-2.7-.3-4.4.9-5.1 3.5l1 .2c.5-2 1.8-2.9 4-2.7zM181.9 317.5l.1 1c2.2-.2 3.4.7 4 2.8l1-.2c-.6-2.6-2.4-3.8-5.1-3.6zM108 132h-7v15h1v-14h6zM132 133h10v14h1v-15h-12v15h1zM116 136h1v9h-1zM102.6 238.1l1.8.8.4-.9-2.3-1-3.1 1.9.5.9zM149 226.3l3.5 2.1.5-.8-4-2.5-1.8 1.1.6.8zM117.5 250.4v3.1h1v-2.6l4.5-2.5-.5-.8zM167.5 248.4l4.5 2.5v2.6h1v-3.1l-5-2.8zM80.3 227.4l.5.9 3.2-1.9 3.7 2.3.5-.8-4.2-2.7zM135.5 72.7c0 .2 0 .2-.1.3l1 .2c0-.2 0-.2.1-.3.7-3.8.3-6.6-2.5-10.9l-.8.5c2.6 4.1 3 6.6 2.3 10.2z"/></symbol><symbol id="dove_ok" viewBox="0 0 364 270"><path d="M231.3 69.1c-29 5.7-42.1 34.2-61.3 34.2-18.8-.4-83.8-14.6-134.8-89.9 0 0-14.7 121.2 57.2 154.5 0 0-33.9 31.3-92.3 23.2 0 0 10.6 60.2 31.5 78.9 0 0 33.9-37.4 59.7-39 25.3-1.2 89.9 7.3 112-37 21.7-44.3 12.3-91.5 67.8-101.3-.2 0-10.8-29.3-39.8-23.6zM117.3 0c-.4 27.2-7.4 54.9-11.8 70.3C133.7 89 157 93.5 166.4 94.7 170 43.9 117.3 0 117.3 0zM242 149.2l30.8 44.2 11.3-40.5-42.1-3.7zm59.6-2.3c3.3.2 6.3-1.9 7.3-5l2.6-9.4 14.8-53.1c-3-3-7.6-3.4-11.1-1l-75.7 52.2c-3.4 2.4-4.7 6.9-2.9 10.7l55.7 4.9 9.3.7zm19-19.2l42.1 3.7-30.8-44.2-11.3 40.5zm-4.2 14.9l-2 7.3c-1 3.1-4 5.2-7.3 5l-9.7-.8-5.7-.5-12.2 43.8c1.9.1 3.9-.4 5.5-1.5l75.7-52.2c1.6-1.1 2.8-2.7 3.3-4.6l-45.5-4-2.1 7.5z"></path></symbol><symbol id="icon-heart-menu-mobile"><path d="M11.332 0h-.013C10.023.02 8.847.61 8 1.657 7.152.61 5.976.02 4.68 0H4.67C2.168 0 .036 2.168 0 5.136a6.142 6.142 0 0 0 .207 1.666c.813 2.05 2.363 3.264 4.033 4.712 1.123.98 2.705 1.913 3.447 2.37.1.063.186.106.29.115h.044a.644.644 0 0 0 .293-.116c.74-.457 2.324-1.39 3.447-2.37 1.67-1.448 3.22-2.66 4.033-4.712A6.222 6.222 0 0 0 16 5.136C15.964 2.168 13.83 0 11.332 0zm3.7 6.55c-.678 1.672-1.93 2.752-3.38 4l-.416.36c-.954.832-2.282 1.645-3.075 2.13l-.16.098-.158-.097c-.794-.484-2.123-1.296-3.076-2.128l-.417-.36C2.9 9.304 1.645 8.224.966 6.55A5.443 5.443 0 0 1 .8 5.144C.83 2.71 2.528.8 4.668.8c1.05.017 2.014.5 2.71 1.36L8 2.928l.622-.768C9.318 1.3 10.28.817 11.332.8c2.14 0 3.838 1.91 3.867 4.346.005.48-.052.953-.168 1.404z"></path></symbol><symbol id="close_mob"><path d="M11.273 12L0 .728.728 0 12 11.273l-.727.727zM.728 12L0 11.273 11.273 0 12 .728.728 12z"></path></symbol></svg>